<?xml version="1.0" standalone="no"?>
<!DOCTYPE svg PUBLIC "-//W3C//DTD SVG 20010904//EN"
 "http://www.w3.org/TR/2001/REC-SVG-20010904/DTD/svg10.dtd">
<svg version="1.0" xmlns="http://www.w3.org/2000/svg"
 width="64.000000pt" height="64.000000pt" viewBox="0 0 64.000000 64.000000"
 preserveAspectRatio="xMidYMid meet">

<g transform="translate(0.000000,64.000000) scale(0.100000,-0.100000)"
fill="#d4953f" stroke="none">
<path d="M0 320 l0 -320 320 0 320 0 0 320 0 320 -320 0 -320 0 0 -320z m600
243 c0 -38 -68 -405 -76 -413 -5 -4 -67 -27 -139 -49 l-130 -42 -112 43 c-107
41 -112 44 -107 68 3 14 7 35 10 48 3 18 11 22 39 22 31 0 35 -3 35 -25 0 -21
9 -29 48 -46 73 -32 99 -32 197 0 100 32 111 44 117 121 l3 45 -207 3 c-208 2
-208 2 -208 25 0 45 5 46 225 49 l210 3 6 40 c4 22 5 43 2 48 -2 4 -96 7 -209
7 -194 0 -204 1 -204 19 0 52 -6 51 256 51 226 0 244 -1 244 -17z"/>
</g>
</svg>
