<?xml version="1.0" standalone="no"?>
<!DOCTYPE svg PUBLIC "-//W3C//DTD SVG 20010904//EN"
 "http://www.w3.org/TR/2001/REC-SVG-20010904/DTD/svg10.dtd">
<svg version="1.0" xmlns="http://www.w3.org/2000/svg"
 width="64.000000pt" height="64.000000pt" viewBox="0 0 64.000000 64.000000"
 preserveAspectRatio="xMidYMid meet">

<g transform="translate(0.000000,64.000000) scale(0.100000,-0.100000)"
fill="#d4953f" stroke="none">
<path d="M0 320 l0 -320 320 0 320 0 0 320 0 320 -320 0 -320 0 0 -320z m605
0 l0 -295 -292 -3 -293 -2 0 300 0 300 293 -2 292 -3 0 -295z"/>
<path d="M340 277 c0 -131 -2 -147 -21 -171 -35 -44 -98 -31 -117 24 -13 36
-32 40 -32 6 0 -29 40 -73 74 -82 35 -9 76 7 100 40 19 25 21 42 21 173 0 108
-3 147 -12 150 -10 4 -13 -29 -13 -140z"/>
<path d="M455 411 c-91 -39 -74 -170 24 -187 20 -4 46 -16 59 -27 44 -41 15
-117 -46 -117 -31 0 -72 36 -72 63 0 9 -7 17 -16 17 -13 0 -15 -6 -9 -27 9
-40 46 -73 88 -80 32 -5 41 -1 73 31 32 32 36 41 31 73 -8 47 -41 81 -86 89
-74 13 -105 78 -58 122 13 12 35 22 48 22 28 0 69 -37 69 -63 0 -9 7 -17 16
-17 13 0 15 6 9 28 -13 56 -81 94 -130 73z"/>
</g>
</svg>
