<?xml version="1.0" standalone="no"?>
<!DOCTYPE svg PUBLIC "-//W3C//DTD SVG 20010904//EN"
 "http://www.w3.org/TR/2001/REC-SVG-20010904/DTD/svg10.dtd">
<svg version="1.0" xmlns="http://www.w3.org/2000/svg"
 width="64.000000pt" height="64.000000pt" viewBox="0 0 64.000000 64.000000"
 preserveAspectRatio="xMidYMid meet"><style>.cls-1{fill:#d4953f;}</style>

<g transform="translate(0.000000,64.000000) scale(0.100000,-0.100000)"
fill="#d4953f" stroke="none">
<path class="cls-1" d="M207 625 c-89 -34 -172 -122 -197 -209 -18 -66 -9 -181 18 -238 30
-60 90 -120 150 -150 68 -33 216 -33 284 0 60 30 120 90 150 150 33 68 33 216
0 284 -30 60 -90 120 -150 150 -59 29 -195 36 -255 13z m220 -16 c115 -43 203
-168 203 -289 0 -162 -148 -310 -310 -310 -162 0 -310 148 -310 310 0 119 82
239 195 285 75 31 146 32 222 4z"/>
<path d="M155 388 c-4 -14 -25 -116 -25 -123 0 -3 6 -5 14 -5 8 0 16 10 18 22
2 16 12 24 34 29 17 3 36 9 42 13 18 11 15 63 -4 70 -27 10 -74 7 -79 -6z m69
-33 c-4 -8 -15 -15 -25 -15 -10 0 -19 7 -19 15 0 9 9 15 25 15 18 0 23 -4 19
-15z"/>
<path d="M272 342 c-15 -74 -15 -82 2 -82 9 0 16 12 18 28 2 21 9 28 30 30 26
3 27 1 22 -27 -5 -23 -3 -31 8 -31 10 0 19 21 27 65 8 37 11 68 8 71 -10 10
-27 -7 -27 -27 0 -14 -7 -19 -29 -19 -25 0 -28 3 -23 25 3 17 0 25 -10 25 -9
0 -18 -20 -26 -58z"/>
<path d="M410 343 c-6 -32 -13 -64 -15 -70 -3 -7 2 -13 10 -13 8 0 17 11 21
25 4 17 13 25 28 25 29 0 66 27 66 49 0 27 -21 41 -61 41 l-38 0 -11 -57z m78
15 c-7 -20 -48 -23 -48 -4 0 11 9 16 26 16 16 0 24 -5 22 -12z"/>
</g>
</svg>
